PathFileType	4	(X/Y/Z)	Patient4_TMGait_0pt3_02_right_06.trc.trc
DataRate	CameraRate	NumFrames	NumMarkers	Units	OrigDataRate	OrigDataStartFrame	OrigNumFrames
47.945205479452	47.945205479452	5	33	mm	47.945205479452	124	       141
Frame#	Time	Sacral			L.Shoulder			Chest			R.Shoulder			Neck			R.ASIS			L.ASIS			R.Thigh.Superior			R.Thigh.Lateral			R.Thigh.Inferior			R.Patella			L.Thigh.Superior			L.Thigh.Lateral			L.Thigh.Inferior			L.Patella			L.Shank.Superior			L.Shank.Lateral			L.Shank.Inferior			R.Shank.Superior			R.Shank.Lateral			R.Shank.Inferior			R.Heel			R.Midfoot.Superior			R.Midfoot.Lateral			R.Toe			L.Heel			L.Midfoot.Lateral			L.Midfoot.Superior			L.Toe			L.Elbow			L.Wrist			R.Elbow			R.Wrist			
		X1	Y1	Z1	X2	Y2	Z2	X3	Y3	Z3	X4	Y4	Z4	X5	Y5	Z5	X6	Y6	Z6	X7	Y7	Z7	X8	Y8	Z8	X9	Y9	Z9	X10	Y10	Z10	X11	Y11	Z11	X12	Y12	Z12	X13	Y13	Z13	X14	Y14	Z14	X15	Y15	Z15	X16	Y16	Z16	X17	Y17	Z17	X18	Y18	Z18	X19	Y19	Z19	X20	Y20	Z20	X21	Y21	Z21	X22	Y22	Z22	X23	Y23	Z23	X24	Y24	Z24	X25	Y25	Z25	X26	Y26	Z26	X27	Y27	Z27	X28	Y28	Z28	X29	Y29	Z29	X30	Y30	Z30	X31	Y31	Z31	X32	Y32	Z32	X33	Y33	Z33	

124	12.955428571429	700.945717115094	995.487059892778	434.486772130870	939.652226124256	1439.307089421755	343.182782877915	972.176207557538	1356.594641496236	524.344646140205	830.796228109745	1422.856520726293	659.270799268400	864.497345128106	1487.095208682917	489.444252504951	890.395181412489	937.009163358780	615.124500188625	952.714857206378	955.591725493287	347.049223568172	968.619027290682	756.891077380550	597.888383775658	903.913713157000	634.002443150457	649.416901710815	1003.347821914316	596.788822609957	584.707302746458	1026.176785578337	512.521376471344	598.823214959339	958.832773097667	726.047735911069	387.299103105000	864.380427581460	617.536835511519	312.455327787145	916.650460830783	533.828983895073	394.874103090027	902.343730229822	464.430877277294	404.807133040249	864.016438888621	396.756880028272	393.276591400037	763.201131957589	295.735416209899	335.409893801926	783.025100529455	182.227470294133	415.939106694561	1006.509095758682	422.034498464302	606.469514505493	941.568774173661	310.785526131421	663.680306902464	1011.176006275585	221.753259467840	617.359941599992	911.673728836589	40.950134026403	580.262873361475	1071.881237419791	109.318634334780	632.356378407888	990.464161728628	36.528372569389	660.120523550757	1193.449945950451	71.016264960501	666.890714716183	631.698091925575	38.198977760544	449.354259629173	709.885598313722	35.369393880894	373.261565490581	793.430885377996	94.572032808291	405.991270258532	921.957172508845	39.560744442816	382.328544798564	1121.081190464231	1188.353506812250	174.931616223242	1373.737138578704	1196.711005939731	238.632692144729	645.433553760482	1120.226531591072	686.914189455487	591.299714938767	864.031612574039	690.342039871861	
125	12.976285714286	701.893084661921	994.741097011801	437.874819215588	940.152590719406	1438.473185293351	347.793724503409	972.214957769071	1355.873543829915	529.109419602697	830.245338823402	1422.049503866755	663.488674265695	864.466613082226	1486.234004124355	493.670368958199	890.924750462698	935.834547738614	619.121578655388	954.072767588593	954.844762510588	351.319198823650	968.845118854674	754.946530079023	601.161677108285	902.759415342404	632.168534084916	651.527875119819	1002.392277358111	594.964373493346	587.145096915232	1023.828321050923	510.423211431672	600.625216491916	958.369749059461	724.675995145159	390.145834974497	862.360063544952	617.362243507894	314.931666212456	913.852213381786	532.765895919493	396.693592617010	898.880971692234	463.373758114745	406.377487738552	860.025493137323	396.104123835221	394.630998540616	758.189653978579	296.118969294642	336.377982352879	777.493685127663	182.055312003506	416.384852277679	1004.252010913282	419.717635249154	608.077845652386	938.913134995554	308.612983841202	664.595976688908	1007.926484315857	219.671562798563	617.787493389720	906.883221712520	41.104841286443	579.847654430914	1067.887006642343	107.292841812090	632.249810060541	985.140139974910	36.299420231652	660.237299855700	1188.541043189399	67.273313358765	667.478331145976	625.399049800724	38.238407300027	449.343786930283	703.637089961966	35.338422165428	373.308970139804	787.269627404066	94.612091379784	405.981792387989	915.756197895459	39.435738226307	382.277960085929	1123.281660098347	1189.086999081740	179.788697524376	1375.349409989930	1204.398967491845	244.166291387367	647.402294786717	1117.640707391430	690.811906758675	595.419913740410	860.988383554763	694.563167906679	
126	12.997142857143	703.061680595629	994.291533965649	441.726725570634	940.799414222530	1437.894995916667	352.614059991559	972.531347666878	1355.378869306875	534.059793796816	830.057901260262	1421.462828427848	667.994765245815	864.633222648611	1485.616660497218	498.160057803093	891.848768316163	934.956071331599	623.361031668420	955.494606196278	954.338196046377	355.765474544521	969.698776852148	753.544674722558	604.219318108742	902.598996028487	630.849767645207	653.708836299813	1002.178873454505	593.622161622478	589.327462422966	1022.332289313778	508.570453677889	602.310299847437	957.982452213526	723.442754160360	393.091828091236	860.341218067917	617.357478302337	317.628874537027	911.158109959447	531.852415000342	398.694012718439	895.582788645442	462.416830137074	408.089571230818	856.102713938551	395.616987844231	396.110179679974	753.181521305384	296.746304770900	337.485138312845	772.027006256998	182.050786659807	416.859223043082	1002.445345012144	417.627960535970	609.534761729566	936.301528342880	306.898956525788	665.456541559379	1004.190470031871	217.752523225970	617.968378257679	900.771770181369	41.448307131089	579.276754445503	1062.767536664660	105.419240324593	631.814597868017	978.588374622584	36.240295509276	660.142457713552	1182.546619601147	63.626237200350	667.654578361396	619.111656919961	38.479917437177	449.318612466156	697.413117966466	35.398224351100	373.362806746094	781.190301045968	94.703891227282	405.939682556733	909.584039606308	39.284204594312	382.206282445484	1125.022313522275	1189.605348402614	184.623998140953	1376.441436208962	1210.694611730926	249.487815228643	649.725065366186	1115.217500316048	695.349909042315	600.247795468594	858.077328117872	699.721773042411	
127	13.018000000000	704.375907737999	994.152404811296	446.023513194306	941.571395659109	1437.594234297935	357.606577140752	973.109827077367	1355.121451304686	539.150188138577	830.251553766640	1421.133180099913	672.761950620219	865.004015201258	1485.268780708381	502.881327737785	893.101571520869	934.398057365935	627.822954147618	956.896895033021	954.088924098038	360.344677851578	971.016420192719	752.661544069875	607.172132546913	903.197469644494	630.030562415290	656.064968460964	1002.500791691145	592.721272002598	591.408958913580	1021.499550118292	507.014288658985	603.989679004934	957.649787326643	722.408779738807	396.132705670674	858.395282458986	617.528437586080	320.523218043269	908.690592507877	531.115037932678	400.852868340477	892.592744983697	461.557986552850	409.895875013637	852.368810706486	395.303375047103	397.682171418435	748.266052471877	297.661614197319	338.723554474337	766.678887990899	182.250000167565	417.334367320992	1001.013375927480	415.831794106324	610.936101864812	933.821790551545	305.612829768039	666.381598970269	1000.206534211855	216.056178815112	618.038603273178	893.908924844063	41.841267920296	578.703480043409	1056.955438468450	103.781387192997	631.200092608171	971.402839759498	36.273827039232	659.952790242908	1175.976837595818	60.354966625838	667.515113772639	612.856232614391	39.051201253808	449.276483253267	691.221945342802	35.617828137236	373.416516400699	775.224481391819	94.863793860391	405.853441659442	903.431953353963	39.101866278051	382.116204526739	1126.310425397598	1189.910843897798	189.445138803271	1377.110416624000	1215.644056624617	254.578662787595	652.260195564483	1113.134614877495	700.475342020069	605.531808972666	855.499822443405	705.730893118704	
128	13.038857142857	705.758482020323	994.310170361607	450.750012532917	942.408271214970	1437.574696917077	362.721504544119	973.920747827207	1355.103289718631	544.320328724939	830.835995698557	1421.074425418331	677.760835249508	865.565650541723	1485.198673928877	507.797683077729	894.623824883315	934.160016606740	632.477264698633	958.198659281549	954.099231921244	365.012272222365	972.607396307835	752.206785506453	610.142436320281	904.250636641448	629.639751334993	658.668034442866	1003.100142961904	592.167575325396	593.534895275427	1021.062608897425	505.750098747086	605.750392860786	957.393062356487	721.632737231206	399.264525253806	856.649696225178	617.864366427099	323.594716972524	906.645283293185	530.569931158087	403.145027054698	890.131300129934	460.780341827087	411.746018316007	849.010267131884	395.153732391014	399.316262780240	743.585060670538	298.913448215156	340.087587068985	761.532419723135	182.691178429786	417.780355927910	999.794833774016	414.345437001780	612.359740716412	931.450045815464	304.691920416344	667.442038965307	996.103475655627	214.610514080139	618.107541623152	886.727217864971	42.195047395217	578.229749507663	1050.770393682442	102.418308492923	630.533036761203	964.015441016820	36.345170823934	659.756416983117	1169.193503763783	57.620261727252	667.173243658835	606.666003812560	40.111685777923	449.216760961060	685.076627074452	36.088746917161	373.464038170132	769.413500981761	95.114801545396	405.710520597310	897.285615174045	38.885644539699	382.012097293806	1127.098613904720	1189.960115591651	194.284270763717	1377.384302571032	1219.238745670471	259.432812267706	654.926062114158	1111.499406228271	706.147326853078	611.085204091090	853.384690869339	712.499424443145	
